<?xml version="1.0" standalone="no"?>
<!DOCTYPE svg PUBLIC "-//W3C//DTD SVG 20010904//EN"
 "http://www.w3.org/TR/2001/REC-SVG-20010904/DTD/svg10.dtd">
<svg version="1.0" xmlns="http://www.w3.org/2000/svg"
 width="700.000000pt" height="700.000000pt" viewBox="0 0 700.000000 700.000000"
 preserveAspectRatio="xMidYMid meet">
<metadata>
Created by potrace 1.14, written by Peter Selinger 2001-2017
</metadata>
<g transform="translate(0.000000,700.000000) scale(0.100000,-0.100000)"
fill="#000000" stroke="none">
<path d="M3269 6996 c-2 -2 -50 -6 -107 -10 -56 -4 -108 -9 -115 -11 -6 -2
-37 -6 -67 -10 -83 -9 -191 -25 -230 -35 -19 -5 -51 -12 -70 -15 -133 -22
-442 -116 -623 -191 -475 -194 -929 -522 -1247 -899 -23 -27 -51 -60 -62 -73
-49 -58 -174 -240 -238 -346 -224 -369 -392 -818 -456 -1222 -3 -20 -7 -45 -9
-56 -2 -11 -7 -47 -10 -81 -4 -34 -9 -75 -11 -92 -26 -193 -25 -747 1 -917 2
-13 6 -49 10 -82 7 -64 7 -64 29 -186 23 -130 25 -136 62 -278 77 -294 225
-643 384 -902 231 -379 471 -646 805 -897 75 -57 232 -163 240 -163 2 0 34
-18 72 -41 358 -215 845 -385 1278 -445 11 -1 36 -5 55 -8 280 -40 736 -43
1025 -6 44 5 100 12 125 16 82 10 323 64 449 100 119 34 363 121 466 167 64
28 279 138 325 165 19 12 49 29 65 38 39 22 169 106 175 114 3 4 28 21 55 40
87 58 258 204 364 311 157 158 276 303 400 488 247 367 441 830 514 1231 30
160 32 173 43 260 3 25 7 55 9 68 19 112 27 683 12 817 -4 33 -9 85 -12 115
-25 253 -84 525 -165 761 -209 616 -576 1132 -1107 1560 -386 311 -971 566
-1508 658 -146 24 -158 26 -340 47 -46 5 -581 14 -586 10z m476 -1820 c44 -6
87 -13 125 -21 14 -3 34 -7 45 -9 54 -11 168 -47 238 -75 366 -146 672 -492
805 -911 30 -96 70 -266 77 -330 24 -227 24 -425 0 -658 -27 -248 -158 -586
-302 -777 -196 -261 -405 -414 -683 -503 -173 -55 -291 -73 -510 -77 -310 -5
-556 43 -788 157 -88 43 -227 132 -266 171 -7 6 -30 28 -52 47 -126 115 -260
309 -333 485 -18 44 -37 89 -42 100 -27 62 -71 247 -94 395 -29 191 -24 519
10 724 128 745 600 1209 1305 1282 36 3 67 8 69 10 5 5 350 -4 396 -10z"/>
</g>
</svg>
