<svg width="25" height="25" viewBox="0 0 25 25" fill="none" xmlns="http://www.w3.org/2000/svg">
<g clip-path="url(#clip0_1:72)">
<path d="M14.3875 0.635474C14.2639 0.535084 14.1012 0.496705 13.9459 0.531324L0.404222 3.65632C0.165892 3.71111 -0.00227172 3.92429 2.32034e-05 4.16882V21.8772C0.00012086 22.1342 0.18767 22.3527 0.441674 22.3918L13.9833 24.4751C14.2677 24.5188 14.5336 24.3238 14.5773 24.0395C14.5813 24.0134 14.5833 23.987 14.5833 23.9606V1.04382C14.5838 0.884986 14.5117 0.734644 14.3875 0.635474Z" fill="#4CAF50"/>
<path d="M24.4791 22.398H14.0624C13.7747 22.398 13.5415 22.1648 13.5415 21.8771C13.5415 21.5895 13.7747 21.3563 14.0624 21.3563H23.9582V3.64797H14.0624C13.7747 3.64797 13.5415 3.41477 13.5415 3.12712C13.5415 2.83948 13.7747 2.60632 14.0624 2.60632H24.479C24.7667 2.60632 24.9999 2.83953 24.9999 3.12717V21.8772C24.9999 22.1648 24.7667 22.398 24.4791 22.398Z" fill="#4CAF50"/>
<path d="M9.8959 17.1898C9.71631 17.1898 9.54941 17.0973 9.45424 16.945L4.2459 8.61169C4.08579 8.37273 4.14975 8.04919 4.38872 7.88909C4.62768 7.72898 4.95122 7.79294 5.11133 8.03191C5.11763 8.04128 5.12358 8.05085 5.12925 8.06062L10.3376 16.394C10.4894 16.6383 10.4145 16.9594 10.1703 17.1113C10.0879 17.1625 9.99287 17.1897 9.8959 17.1898Z" fill="#FAFAFA"/>
<path d="M4.6875 17.1897C4.39985 17.1891 4.16714 16.9554 4.16773 16.6678C4.16792 16.5705 4.19536 16.4753 4.24688 16.3928L9.45523 8.05944C9.59946 7.81056 9.91817 7.72574 10.167 7.86998C10.4159 8.01422 10.5007 8.33292 10.3564 8.58175C10.3508 8.59152 10.3448 8.60109 10.3385 8.61046L5.13023 16.9438C5.03511 17.0968 4.86768 17.1898 4.6875 17.1897Z" fill="#FAFAFA"/>
<path d="M18.2294 22.3979C17.9417 22.3979 17.7085 22.1647 17.7085 21.8771V3.12705C17.7085 2.8394 17.9417 2.6062 18.2294 2.6062C18.517 2.6062 18.7502 2.8394 18.7502 3.12705V21.8771C18.7502 22.1647 18.517 22.3979 18.2294 22.3979Z" fill="#4CAF50"/>
<path d="M24.4793 19.2729H14.0626C13.775 19.2729 13.5417 19.0397 13.5417 18.7521C13.5417 18.4644 13.775 18.2312 14.0626 18.2312H24.4792C24.7669 18.2312 25.0001 18.4644 25.0001 18.7521C25.0001 19.0398 24.7669 19.2729 24.4793 19.2729Z" fill="#4CAF50"/>
<path d="M24.4793 16.1479H14.0626C13.775 16.1479 13.5417 15.9147 13.5417 15.6271C13.5417 15.3394 13.775 15.1062 14.0626 15.1062H24.4792C24.7669 15.1062 25.0001 15.3394 25.0001 15.6271C25.0001 15.9148 24.7669 16.1479 24.4793 16.1479Z" fill="#4CAF50"/>
<path d="M24.4793 13.0229H14.0626C13.775 13.0229 13.5417 12.7897 13.5417 12.5021C13.5417 12.2144 13.775 11.9812 14.0626 11.9812H24.4792C24.7669 11.9812 25.0001 12.2144 25.0001 12.5021C25.0001 12.7898 24.7669 13.0229 24.4793 13.0229Z" fill="#4CAF50"/>
<path d="M24.4793 9.8979H14.0626C13.775 9.8979 13.5417 9.6647 13.5417 9.37705C13.5417 9.0894 13.775 8.8562 14.0626 8.8562H24.4792C24.7669 8.8562 25.0001 9.0894 25.0001 9.37705C25.0001 9.6647 24.7669 9.8979 24.4793 9.8979Z" fill="#4CAF50"/>
<path d="M24.4793 6.7729H14.0626C13.775 6.7729 13.5417 6.53969 13.5417 6.25205C13.5417 5.9644 13.775 5.7312 14.0626 5.7312H24.4792C24.7669 5.7312 25.0001 5.9644 25.0001 6.25205C25.0001 6.53974 24.7669 6.7729 24.4793 6.7729Z" fill="#4CAF50"/>
</g>
<defs>
<clipPath id="clip0_1:72">
<rect width="25" height="25" fill="white"/>
</clipPath>
</defs>
</svg>
